<svg width="18" height="18" viewBox="0 0 18 18" fill="none" xmlns="http://www.w3.org/2000/svg">
<g clip-path="url(#clip0_60_11806)">
<path d="M13.996 11.1226L12.1579 10.9127C11.7164 10.8621 11.2822 11.0141 10.9711 11.3252L9.63948 12.6568C7.59147 11.6147 5.91254 9.94301 4.87044 7.88775L6.20925 6.54894C6.52043 6.23775 6.6724 5.80355 6.62174 5.3621L6.41188 3.53842C6.32504 2.8075 5.70991 2.2575 4.97176 2.2575H3.71979C2.90203 2.2575 2.22178 2.93776 2.27243 3.75552C2.65598 9.93577 7.59871 14.8713 13.7717 15.2548C14.5894 15.3055 15.2697 14.6252 15.2697 13.8075V12.5555C15.2769 11.8246 14.7269 11.2095 13.996 11.1226Z" fill="#212121"/>
</g>
<defs>
<clipPath id="clip0_60_11806">
<rect width="18" height="18" fill="white"/>
</clipPath>
</defs>
</svg>
